<svg width="197" height="41" viewBox="0 0 197 41" fill="none" xmlns="http://www.w3.org/2000/svg">
<path d="M31.1992 17.3906C31.1992 19.2526 30.8913 21.0215 30.2754 22.6973C29.6595 24.3587 28.8073 25.8555 27.7188 27.1875C26.6445 28.5195 25.3626 29.651 23.873 30.582C22.3978 31.513 20.7936 32.1647 19.0605 32.5371C19.5618 33.3678 20.0703 33.9479 20.5859 34.2773C21.1016 34.6068 21.6315 34.7715 22.1758 34.7715C22.3906 34.7715 22.6341 34.7357 22.9062 34.6641C23.1927 34.5924 23.4792 34.5137 23.7656 34.4277C24.0664 34.3561 24.3672 34.2845 24.668 34.2129C24.9831 34.1413 25.2839 34.1055 25.5703 34.1055C26.0716 34.1055 26.5371 34.1986 26.9668 34.3848C27.3965 34.571 27.7689 34.8216 28.084 35.1367C28.3991 35.4518 28.6426 35.8099 28.8145 36.2109C29.0007 36.612 29.0938 37.0273 29.0938 37.457C29.0938 37.8581 29.0007 38.2591 28.8145 38.6602C28.6283 39.0755 28.3633 39.4479 28.0195 39.7773C27.6758 40.1068 27.2533 40.3717 26.752 40.5723C26.265 40.7871 25.7207 40.8945 25.1191 40.8945C24.1309 40.8945 23.2715 40.6367 22.541 40.1211C21.8249 39.6055 21.1947 38.9466 20.6504 38.1445C20.1061 37.3568 19.6263 36.4831 19.2109 35.5234C18.8099 34.5638 18.4375 33.64 18.0938 32.752C17.7214 32.8236 17.3203 32.8665 16.8906 32.8809C16.4753 32.9095 16.0671 32.9238 15.666 32.9238C14.2337 32.9238 12.8516 32.7376 11.5195 32.3652C10.1875 31.9928 8.94141 31.4701 7.78125 30.7969C6.63542 30.1237 5.58984 29.3145 4.64453 28.3691C3.69922 27.4238 2.88997 26.3783 2.2168 25.2324C1.54362 24.0723 1.02083 22.8333 0.648438 21.5156C0.276042 20.1979 0.0898438 18.8229 0.0898438 17.3906C0.0898438 15.9727 0.276042 14.612 0.648438 13.3086C1.02083 11.9909 1.54362 10.7591 2.2168 9.61328C2.88997 8.45312 3.69922 7.40039 4.64453 6.45508C5.58984 5.50977 6.63542 4.70052 7.78125 4.02734C8.94141 3.35417 10.1875 2.83138 11.5195 2.45898C12.8516 2.08659 14.2337 1.90039 15.666 1.90039C17.0983 1.90039 18.4733 2.08659 19.791 2.45898C21.1087 2.83138 22.3405 3.35417 23.4863 4.02734C24.6465 4.70052 25.6992 5.50977 26.6445 6.45508C27.5898 7.40039 28.3991 8.45312 29.0723 9.61328C29.7454 10.7591 30.2682 11.9909 30.6406 13.3086C31.013 14.612 31.1992 15.9727 31.1992 17.3906ZM22.9277 17.3906C22.9277 14.8984 22.7487 12.7357 22.3906 10.9023C22.0469 9.05469 21.5527 7.5293 20.9082 6.32617C20.278 5.10872 19.5117 4.19922 18.6094 3.59766C17.7214 2.99609 16.7402 2.69531 15.666 2.69531C14.5632 2.69531 13.5605 3.02474 12.6582 3.68359C11.7702 4.34245 11.0111 5.30208 10.3809 6.5625C9.75065 7.82292 9.26367 9.36263 8.91992 11.1816C8.57617 13.0007 8.4043 15.0703 8.4043 17.3906C8.4043 19.181 8.51172 20.8281 8.72656 22.332C8.94141 23.8359 9.25651 25.1966 9.67188 26.4141C10.0443 26.2852 10.4167 26.1992 10.7891 26.1562C11.1615 26.099 11.5267 26.0703 11.8848 26.0703C12.515 26.0703 13.0807 26.1419 13.582 26.2852C14.0833 26.4284 14.5059 26.5859 14.8496 26.7578C15.2507 26.9583 15.6087 27.1803 15.9238 27.4238C16.4538 27.9108 16.9121 28.498 17.2988 29.1855C17.6999 29.8587 18.0651 30.5892 18.3945 31.377C19.7839 30.5462 20.8867 28.9707 21.7031 26.6504C22.5195 24.3301 22.9277 21.2435 22.9277 17.3906ZM15.2363 32.0859C15.3079 32.0859 15.3724 32.0931 15.4297 32.1074C15.5013 32.1217 15.5801 32.1289 15.666 32.1289C15.9525 32.1289 16.2747 32.0931 16.6328 32.0215C17.0052 31.9642 17.3561 31.8711 17.6855 31.7422C17.3561 31.0117 17.0052 30.3242 16.6328 29.6797C16.2747 29.0352 15.8665 28.4909 15.4082 28.0469C15.3796 28.0326 15.2793 27.9609 15.1074 27.832C14.9355 27.7031 14.6921 27.5671 14.377 27.4238C14.0762 27.2663 13.7109 27.1302 13.2812 27.0156C12.8659 26.901 12.4004 26.8438 11.8848 26.8438C11.5983 26.8438 11.2904 26.8724 10.9609 26.9297C10.6458 26.9727 10.3092 27.0514 9.95117 27.166C10.5527 28.6699 11.2975 29.8444 12.1855 30.6895C13.0879 31.5345 14.1048 32 15.2363 32.0859ZM32.5742 1.59961L50.5137 2.11523V2.91016L46.5176 2.78125L46.3027 19.1094C46.3027 19.6823 46.3027 20.4056 46.3027 21.2793C46.3171 22.1387 46.3672 23.0553 46.4531 24.0293C46.5391 24.9889 46.6823 25.9486 46.8828 26.9082C47.0833 27.8678 47.3698 28.7344 47.7422 29.5078C48.1289 30.2812 48.6159 30.9115 49.2031 31.3984C49.8047 31.8854 50.5495 32.1289 51.4375 32.1289C52.4544 32.1289 53.3138 31.8783 54.0156 31.377C54.7318 30.8757 55.319 30.2168 55.7773 29.4004C56.25 28.5697 56.6152 27.6315 56.873 26.5859C57.1452 25.526 57.3457 24.4518 57.4746 23.3633C57.6178 22.2747 57.7038 21.2077 57.7324 20.1621C57.7754 19.1165 57.804 18.1927 57.8184 17.3906L57.9688 2.52344L53.3066 2.39453V1.59961L71.2461 2.11523V2.91016L66.627 2.78125C66.5983 3.03906 66.5625 3.4974 66.5195 4.15625C66.4766 4.8151 66.4264 5.73177 66.3691 6.90625C66.3262 8.06641 66.2832 9.51302 66.2402 11.2461C66.1973 12.9648 66.1686 15.013 66.1543 17.3906C66.14 18.737 65.9681 20.0618 65.6387 21.3652C65.3092 22.6543 64.8366 23.8717 64.2207 25.0176C63.6191 26.1634 62.8815 27.2233 62.0078 28.1973C61.1341 29.1569 60.153 29.9876 59.0645 30.6895C57.9902 31.3913 56.8086 31.9355 55.5195 32.3223C54.2305 32.7233 52.8698 32.9238 51.4375 32.9238C49.3607 32.9238 47.4844 32.5156 45.8086 31.6992C44.1471 30.8828 42.7292 29.7728 41.5547 28.3691C40.3945 26.9655 39.4993 25.3255 38.8691 23.4492C38.2533 21.5586 37.9596 19.5391 37.9883 17.3906L38.1602 2.56641L32.5742 2.39453V1.59961ZM86.3066 31.2051H89.5723L86.5215 23.9434H76.8105L73.9102 31.334H79.4531V32H68.1738V31.248H73.1152L81.1074 11.1387L85.3398 0.503906L99.0254 31.2051H102.979V32H86.3066V31.2051ZM77.1113 23.1484H86.1777L81.5156 12.1484L77.1113 23.1484ZM102.957 31.8711C103.573 30.9688 104.576 29.3216 105.965 26.9297C106.552 25.9128 107.254 24.681 108.07 23.2344C108.887 21.7878 109.839 20.0762 110.928 18.0996C112.016 16.123 113.248 13.86 114.623 11.3105C116.012 8.76107 117.566 5.875 119.285 2.65234L112.561 2.48047C112.274 2.52344 111.902 2.61654 111.443 2.75977C110.999 2.90299 110.512 3.14648 109.982 3.49023C109.452 3.83398 108.901 4.29232 108.328 4.86523C107.77 5.43815 107.232 6.18294 106.717 7.09961C106.201 8.00195 105.736 9.09049 105.32 10.3652C104.919 11.64 104.604 13.1439 104.375 14.877L103.58 14.834L103.967 1.4707L129.189 2.0293C128.559 2.94596 127.549 4.5931 126.16 6.9707C125.573 7.98763 124.871 9.2194 124.055 10.666C123.238 12.1126 122.286 13.8171 121.197 15.7793C120.123 17.7415 118.898 19.9902 117.523 22.5254C116.163 25.0605 114.637 27.9251 112.947 31.1191L119.908 31.1621C120.166 31.1335 120.517 31.0475 120.961 30.9043C121.419 30.7611 121.913 30.5247 122.443 30.1953C122.973 29.8516 123.525 29.3932 124.098 28.8203C124.671 28.2331 125.215 27.4811 125.73 26.5645C126.246 25.6478 126.704 24.5378 127.105 23.2344C127.521 21.9167 127.829 20.3626 128.029 18.5723L128.824 18.6152L128.652 32L102.957 31.8711ZM147.15 31.2051H150.416L147.365 23.9434H137.654L134.754 31.334H140.297V32H129.018V31.248H133.959L141.951 11.1387L146.184 0.503906L159.869 31.2051H163.822V32H147.15V31.2051ZM137.955 23.1484H147.021L142.359 12.1484L137.955 23.1484ZM181.01 31.377L184.082 31.334L176.605 21.2578H176.477C176.362 21.2865 176.262 21.3008 176.176 21.3008C176.09 21.3008 175.997 21.3008 175.896 21.3008L175.725 31.377H179.42V32.1719H162.834V31.377H167.947L168.205 2.99609C167.446 2.99609 166.673 3.00326 165.885 3.01758C165.097 3.0319 164.23 3.03906 163.285 3.03906V2.26562C166.451 2.2513 169.05 2.23698 171.084 2.22266C173.118 2.20833 174.715 2.19401 175.875 2.17969C177.236 2.16536 178.26 2.1582 178.947 2.1582C179.678 2.1582 180.53 2.17969 181.504 2.22266C182.478 2.26562 183.48 2.38737 184.512 2.58789C185.543 2.77409 186.56 3.06771 187.562 3.46875C188.565 3.86979 189.46 4.42839 190.248 5.14453C191.036 5.84635 191.673 6.73438 192.16 7.80859C192.647 8.88281 192.891 10.1862 192.891 11.7188C192.891 13.0938 192.683 14.2897 192.268 15.3066C191.852 16.3236 191.265 17.1901 190.506 17.9062C189.761 18.6224 188.859 19.2096 187.799 19.668C186.739 20.112 185.557 20.4557 184.254 20.6992L193.363 31.1621L193.277 31.2051L196.887 31.1621V31.957L181.01 32.1719V31.377ZM185.328 11.6758C185.328 10.3581 185.221 9.23372 185.006 8.30273C184.791 7.35742 184.483 6.56966 184.082 5.93945C183.695 5.29492 183.223 4.7793 182.664 4.39258C182.105 4.00586 181.482 3.71224 180.795 3.51172C180.122 3.3112 179.391 3.18229 178.604 3.125C177.83 3.05339 177.021 3.01042 176.176 2.99609L175.896 20.4629H176.434C177.551 20.3483 178.532 20.1335 179.377 19.8184C180.222 19.5033 180.952 19.1309 181.568 18.7012C182.199 18.2715 182.721 17.7988 183.137 17.2832C183.566 16.7533 183.924 16.2305 184.211 15.7148C184.87 14.4974 185.242 13.151 185.328 11.6758Z" fill="#014984"/>
</svg>
