<svg width="108" height="23" viewBox="0 0 108 23" fill="none" xmlns="http://www.w3.org/2000/svg">
<path d="M16.9766 10.0312C16.9766 11.0469 16.8086 12.0117 16.4727 12.9258C16.1367 13.832 15.6719 14.6484 15.0781 15.375C14.4922 16.1016 13.793 16.7188 12.9805 17.2266C12.1758 17.7344 11.3008 18.0898 10.3555 18.293C10.6289 18.7461 10.9062 19.0625 11.1875 19.2422C11.4688 19.4219 11.7578 19.5117 12.0547 19.5117C12.1719 19.5117 12.3047 19.4922 12.4531 19.4531C12.6094 19.4141 12.7656 19.3711 12.9219 19.3242C13.0859 19.2852 13.25 19.2461 13.4141 19.207C13.5859 19.168 13.75 19.1484 13.9062 19.1484C14.1797 19.1484 14.4336 19.1992 14.668 19.3008C14.9023 19.4023 15.1055 19.5391 15.2773 19.7109C15.4492 19.8828 15.582 20.0781 15.6758 20.2969C15.7773 20.5156 15.8281 20.7422 15.8281 20.9766C15.8281 21.1953 15.7773 21.4141 15.6758 21.6328C15.5742 21.8594 15.4297 22.0625 15.2422 22.2422C15.0547 22.4219 14.8242 22.5664 14.5508 22.6758C14.2852 22.793 13.9883 22.8516 13.6602 22.8516C13.1211 22.8516 12.6523 22.7109 12.2539 22.4297C11.8633 22.1484 11.5195 21.7891 11.2227 21.3516C10.9258 20.9219 10.6641 20.4453 10.4375 19.9219C10.2188 19.3984 10.0156 18.8945 9.82812 18.4102C9.625 18.4492 9.40625 18.4727 9.17188 18.4805C8.94531 18.4961 8.72266 18.5039 8.50391 18.5039C7.72266 18.5039 6.96875 18.4023 6.24219 18.1992C5.51562 17.9961 4.83594 17.7109 4.20312 17.3438C3.57812 16.9766 3.00781 16.5352 2.49219 16.0195C1.97656 15.5039 1.53516 14.9336 1.16797 14.3086C0.800781 13.6758 0.515625 13 0.3125 12.2812C0.109375 11.5625 0.0078125 10.8125 0.0078125 10.0312C0.0078125 9.25781 0.109375 8.51562 0.3125 7.80469C0.515625 7.08594 0.800781 6.41406 1.16797 5.78906C1.53516 5.15625 1.97656 4.58203 2.49219 4.06641C3.00781 3.55078 3.57812 3.10937 4.20312 2.74219C4.83594 2.375 5.51562 2.08984 6.24219 1.88672C6.96875 1.68359 7.72266 1.58203 8.50391 1.58203C9.28516 1.58203 10.0352 1.68359 10.7539 1.88672C11.4727 2.08984 12.1445 2.375 12.7695 2.74219C13.4023 3.10937 13.9766 3.55078 14.4922 4.06641C15.0078 4.58203 15.4492 5.15625 15.8164 5.78906C16.1836 6.41406 16.4688 7.08594 16.6719 7.80469C16.875 8.51562 16.9766 9.25781 16.9766 10.0312ZM12.4648 10.0312C12.4648 8.67188 12.3672 7.49219 12.1719 6.49219C11.9844 5.48438 11.7148 4.65234 11.3633 3.99609C11.0195 3.33203 10.6016 2.83594 10.1094 2.50781C9.625 2.17969 9.08984 2.01562 8.50391 2.01562C7.90234 2.01562 7.35547 2.19531 6.86328 2.55469C6.37891 2.91406 5.96484 3.4375 5.62109 4.125C5.27734 4.8125 5.01172 5.65234 4.82422 6.64453C4.63672 7.63672 4.54297 8.76562 4.54297 10.0312C4.54297 11.0078 4.60156 11.9062 4.71875 12.7266C4.83594 13.5469 5.00781 14.2891 5.23438 14.9531C5.4375 14.8828 5.64062 14.8359 5.84375 14.8125C6.04688 14.7812 6.24609 14.7656 6.44141 14.7656C6.78516 14.7656 7.09375 14.8047 7.36719 14.8828C7.64062 14.9609 7.87109 15.0469 8.05859 15.1406C8.27734 15.25 8.47266 15.3711 8.64453 15.5039C8.93359 15.7695 9.18359 16.0898 9.39453 16.4648C9.61328 16.832 9.8125 17.2305 9.99219 17.6602C10.75 17.207 11.3516 16.3477 11.7969 15.082C12.2422 13.8164 12.4648 12.1328 12.4648 10.0312ZM8.26953 18.0469C8.30859 18.0469 8.34375 18.0508 8.375 18.0586C8.41406 18.0664 8.45703 18.0703 8.50391 18.0703C8.66016 18.0703 8.83594 18.0508 9.03125 18.0117C9.23438 17.9805 9.42578 17.9297 9.60547 17.8594C9.42578 17.4609 9.23438 17.0859 9.03125 16.7344C8.83594 16.3828 8.61328 16.0859 8.36328 15.8438C8.34766 15.8359 8.29297 15.7969 8.19922 15.7266C8.10547 15.6562 7.97266 15.582 7.80078 15.5039C7.63672 15.418 7.4375 15.3438 7.20312 15.2812C6.97656 15.2188 6.72266 15.1875 6.44141 15.1875C6.28516 15.1875 6.11719 15.2031 5.9375 15.2344C5.76562 15.2578 5.58203 15.3008 5.38672 15.3633C5.71484 16.1836 6.12109 16.8242 6.60547 17.2852C7.09766 17.7461 7.65234 18 8.26953 18.0469ZM17.7266 1.41797L27.5117 1.69922V2.13281L25.332 2.0625L25.2148 10.9688C25.2148 11.2812 25.2148 11.6758 25.2148 12.1523C25.2227 12.6211 25.25 13.1211 25.2969 13.6523C25.3438 14.1758 25.4219 14.6992 25.5312 15.2227C25.6406 15.7461 25.7969 16.2188 26 16.6406C26.2109 17.0625 26.4766 17.4062 26.7969 17.6719C27.125 17.9375 27.5312 18.0703 28.0156 18.0703C28.5703 18.0703 29.0391 17.9336 29.4219 17.6602C29.8125 17.3867 30.1328 17.0273 30.3828 16.582C30.6406 16.1289 30.8398 15.6172 30.9805 15.0469C31.1289 14.4688 31.2383 13.8828 31.3086 13.2891C31.3867 12.6953 31.4336 12.1133 31.4492 11.543C31.4727 10.9727 31.4883 10.4688 31.4961 10.0312L31.5781 1.92188L29.0352 1.85156V1.41797L38.8203 1.69922V2.13281L36.3008 2.0625C36.2852 2.20312 36.2656 2.45312 36.2422 2.8125C36.2188 3.17188 36.1914 3.67187 36.1602 4.3125C36.1367 4.94531 36.1133 5.73437 36.0898 6.67969C36.0664 7.61719 36.0508 8.73438 36.043 10.0312C36.0352 10.7656 35.9414 11.4883 35.7617 12.1992C35.582 12.9023 35.3242 13.5664 34.9883 14.1914C34.6602 14.8164 34.2578 15.3945 33.7812 15.9258C33.3047 16.4492 32.7695 16.9023 32.1758 17.2852C31.5898 17.668 30.9453 17.9648 30.2422 18.1758C29.5391 18.3945 28.7969 18.5039 28.0156 18.5039C26.8828 18.5039 25.8594 18.2812 24.9453 17.8359C24.0391 17.3906 23.2656 16.7852 22.625 16.0195C21.9922 15.2539 21.5039 14.3594 21.1602 13.3359C20.8242 12.3047 20.6641 11.2031 20.6797 10.0312L20.7734 1.94531L17.7266 1.85156V1.41797ZM47.0352 17.5664H48.8164L47.1523 13.6055H41.8555L40.2734 17.6367H43.2969V18H37.1445V17.5898H39.8398L44.1992 6.62109L46.5078 0.820312L53.9727 17.5664H56.1289V18H47.0352V17.5664ZM42.0195 13.1719H46.9648L44.4219 7.17188L42.0195 13.1719ZM56.1172 17.9297C56.4531 17.4375 57 16.5391 57.7578 15.2344C58.0781 14.6797 58.4609 14.0078 58.9062 13.2188C59.3516 12.4297 59.8711 11.4961 60.4648 10.418C61.0586 9.33984 61.7305 8.10547 62.4805 6.71484C63.2383 5.32422 64.0859 3.75 65.0234 1.99219L61.3555 1.89844C61.1992 1.92188 60.9961 1.97266 60.7461 2.05078C60.5039 2.12891 60.2383 2.26172 59.9492 2.44922C59.6602 2.63672 59.3594 2.88672 59.0469 3.19922C58.7422 3.51172 58.4492 3.91797 58.168 4.41797C57.8867 4.91016 57.6328 5.50391 57.4062 6.19922C57.1875 6.89453 57.0156 7.71484 56.8906 8.66016L56.457 8.63672L56.668 1.34766L70.4258 1.65234C70.082 2.15234 69.5312 3.05078 68.7734 4.34766C68.4531 4.90234 68.0703 5.57422 67.625 6.36328C67.1797 7.15234 66.6602 8.08203 66.0664 9.15234C65.4805 10.2227 64.8125 11.4492 64.0625 12.832C63.3203 14.2148 62.4883 15.7773 61.5664 17.5195L65.3633 17.543C65.5039 17.5273 65.6953 17.4805 65.9375 17.4023C66.1875 17.3242 66.457 17.1953 66.7461 17.0156C67.0352 16.8281 67.3359 16.5781 67.6484 16.2656C67.9609 15.9453 68.2578 15.5352 68.5391 15.0352C68.8203 14.5352 69.0703 13.9297 69.2891 13.2188C69.5156 12.5 69.6836 11.6523 69.793 10.6758L70.2266 10.6992L70.1328 18L56.1172 17.9297ZM80.2227 17.5664H82.0039L80.3398 13.6055H75.043L73.4609 17.6367H76.4844V18H70.332V17.5898H73.0273L77.3867 6.62109L79.6953 0.820312L87.1602 17.5664H89.3164V18H80.2227V17.5664ZM75.207 13.1719H80.1523L77.6094 7.17188L75.207 13.1719ZM98.6914 17.6602L100.367 17.6367L96.2891 12.1406H96.2188C96.1562 12.1562 96.1016 12.1641 96.0547 12.1641C96.0078 12.1641 95.957 12.1641 95.9023 12.1641L95.8086 17.6602H97.8242V18.0938H88.7773V17.6602H91.5664L91.707 2.17969C91.293 2.17969 90.8711 2.18359 90.4414 2.19141C90.0117 2.19922 89.5391 2.20312 89.0234 2.20312V1.78125C90.75 1.77344 92.168 1.76563 93.2773 1.75781C94.3867 1.75 95.2578 1.74219 95.8906 1.73438C96.6328 1.72656 97.1914 1.72266 97.5664 1.72266C97.9648 1.72266 98.4297 1.73438 98.9609 1.75781C99.4922 1.78125 100.039 1.84766 100.602 1.95703C101.164 2.05859 101.719 2.21875 102.266 2.4375C102.812 2.65625 103.301 2.96094 103.73 3.35156C104.16 3.73438 104.508 4.21875 104.773 4.80469C105.039 5.39062 105.172 6.10156 105.172 6.9375C105.172 7.6875 105.059 8.33984 104.832 8.89453C104.605 9.44922 104.285 9.92188 103.871 10.3125C103.465 10.7031 102.973 11.0234 102.395 11.2734C101.816 11.5156 101.172 11.7031 100.461 11.8359L105.43 17.543L105.383 17.5664L107.352 17.543V17.9766L98.6914 18.0938V17.6602ZM101.047 6.91406C101.047 6.19531 100.988 5.58203 100.871 5.07422C100.754 4.55859 100.586 4.12891 100.367 3.78516C100.156 3.43359 99.8984 3.15234 99.5938 2.94141C99.2891 2.73047 98.9492 2.57031 98.5742 2.46094C98.207 2.35156 97.8086 2.28125 97.3789 2.25C96.957 2.21094 96.5156 2.1875 96.0547 2.17969L95.9023 11.707H96.1953C96.8047 11.6445 97.3398 11.5273 97.8008 11.3555C98.2617 11.1836 98.6602 10.9805 98.9961 10.7461C99.3398 10.5117 99.625 10.2539 99.8516 9.97266C100.086 9.68359 100.281 9.39844 100.438 9.11719C100.797 8.45312 101 7.71875 101.047 6.91406Z" fill="#014984"/>
</svg>
